
<svg
    width="1234" height="458" viewBox="-166 -196 152 92" xmlns="http://www.w3.org/2000/svg"
>
    <circle class="svg-0" cx="-90.0" cy="-180.0" r="15.5" stroke="black" fill="white"/>
    <text class="svg-0" x="-90.0" y="-180.0" font-size="12" text-anchor="middle" dominant-baseline="middle" >0</text>
    <circle class="svg-3" cx="-30.0" cy="-150.0" r="15.5" stroke="black" fill="white"/>
    <text class="svg-3" x="-30.0" y="-150.0" font-size="12" text-anchor="middle" dominant-baseline="middle" >1</text>
    <circle class="svg-6" cx="-90.0" cy="-120.0" r="15.5" stroke="black" fill="white"/>
    <text class="svg-6" x="-90.0" y="-120.0" font-size="12" text-anchor="middle" dominant-baseline="middle" >2</text>
    <circle class="svg-9" cx="-150.0" cy="-150.0" r="15.5" stroke="black" fill="white"/>
    <text class="svg-9" x="-150.0" y="-150.0" font-size="12" text-anchor="middle" dominant-baseline="middle" >3</text>
    <path class="svg-13" d="M -75.7 -172.8 L -45.2 -157.6" stroke="black"/>
    <path class="svg-13" d="M -49.7 -164.3 L -53.3 -157.2 L -44.3 -157.2 z" stroke="none" fill="black" />
    <path class="svg-34" d="M -100.0 -132.0 A 38.0 38.0 0 0 1 -103.0 -161.0" stroke="black" fill="none"/>
    <path class="svg-34" d="M -107.8 -162.8 L -100.8 -159.0 L -100.5 -167.9 z" stroke="none" fill="black" />
    <path class="svg-24" d="M -80.0 -168.0 A 38.0 38.0 0 0 1 -77.0 -139.0" stroke="black" fill="none"/>
    <path class="svg-24" d="M -72.2 -137.2 L -79.2 -141.0 L -79.5 -132.1 z" stroke="none" fill="black" />
    <path class="svg-44" d="M -104.3 -172.8 L -134.8 -157.6" stroke="black"/>
    <path class="svg-44" d="M -126.7 -157.2 L -130.3 -164.3 L -135.7 -157.2 z" stroke="none" fill="black" />
    <path class="svg-17" d="M -44.3 -142.8 L -74.8 -127.6" stroke="black"/>
    <path class="svg-17" d="M -66.7 -127.2 L -70.3 -134.3 L -75.7 -127.2 z" stroke="none" fill="black" />
    <path class="svg-61" d="M -135.7 -142.8 L -105.2 -127.6" stroke="black"/>
    <path class="svg-61" d="M -109.7 -134.3 L -113.3 -127.2 L -104.3 -127.2 z" stroke="none" fill="black" />
</svg>